#!OML:ASF X:\für Bonn\!DataBase\2005_08_12_Daniel\c3d\Daniel.ASF
:FULLY-SPECIFIED
:DEGREES
1
root -0.568773 16.8022 0.0130458 13.2239 -73.7345 -24.8805
lowerback 20.5281 -7.84775 5.21826
upperback 6.35307 -9.61285 -1.05454
thorax -5.43301 -4.86247 -1.59239
lowerneck 1.63286 4.95045 2.34824
upperneck 19.4698 6.26955 -1.81548
head 5.74787 2.8256 -0.708193
rclavicle -1.0138e-013 7.95139e-015
rhumerus -24.4849 33.0626 -65.4601
rradius 93.9708
rwrist -5.02621
rhand -38.0214 44.4318
rfingers 7.12502
rthumb -11.0599 14.7432
lclavicle -1.0138e-013 7.95139e-015
lhumerus 6.87193 5.01902 78.7945
lradius 123.837
lwrist 21.9327
lhand -24.3209 -16.2844
lfingers 7.12502
lthumb 2.16744 13.6844
rfemur -4.22195 -3.38685 25.9733
rtibia 37.346
rfoot -28.9843 -20.2285
rtoes -10.8081
lfemur -16.1315 -14.0737 -15.2161
ltibia 48.9252
lfoot -24.5036 1.36718
ltoes 1.34766
2
root -0.558542 16.8078 0.0561418 12.4577 -73.7983 -24.4808
lowerback 21.1543 -8.24111 4.70388
upperback 6.5424 -10.2127 -1.05536
thorax -5.50711 -5.1578 -1.08632
lowerneck 1.7918 5.21402 2.1364
upperneck 19.2906 6.6508 -1.96515
head 5.67125 2.98616 -0.708407
rclavicle 1.44516e-013 -3.26007e-014
rhumerus -26.6939 33.8166 -66.4189
rradius 92.3285
rwrist -4.90191
rhand -38.4227 44.3486
rfingers 7.12502
rthumb -11.447 14.6811
lclavicle 1.44516e-013 -3.26007e-014
lhumerus 8.49688 4.89884 78.8254
lradius 124.243
lwrist 21.9707
lhand -24.0063 -16.1082
lfingers 7.12502
lthumb 2.47128 13.8572
rfemur -5.19067 -4.20209 25.2942
rtibia 39.3415
rfoot -27.1528 -19.9249
rtoes -11.0391
lfemur -15.4846 -14.0344 -15.6308
ltibia 48.571
lfoot -24.2819 1.35256
ltoes 1.58636
3
root -0.544332 16.822 0.098448 11.8679 -73.9593 -24.2537
lowerback 21.7815 -8.60297 4.2498
upperback 6.75179 -10.7676 -1.07992
thorax -5.55745 -5.43218 -0.647469
lowerneck 1.89527 5.48168 1.83812
upperneck 19.1098 7.03021 -2.05391
head 5.59814 3.1447 -0.67483
rclavicle 9.24349e-014 -3.33958e-014
rhumerus -28.8165 34.305 -67.4362
rradius 90.6326
rwrist -4.71069
rhand -38.6327 44.1472
rfingers 7.12502
rthumb -11.6494 14.491
lclavicle 9.24349e-014 -3.33958e-014
lhumerus 10.2461 4.71558 78.803
lradius 124.656
lwrist 22.0176
lhand -23.6612 -15.7977
lfingers 7.12502
lthumb 2.80451 14.1636
rfemur -6.42129 -4.71529 24.6831
rtibia 41.6837
rfoot -25.038 -19.7149
rtoes -10.7906
lfemur -14.7488 -14.013 -16.0186
ltibia 48.0646
lfoot -24.0961 1.40794
ltoes 1.92516
4
root -0.527929 16.8471 0.141384 11.4247 -74.1812 -24.193
lowerback 22.4301 -8.94074 3.80858
upperback 6.98059 -11.2939 -1.09691
thorax -5.58423 -5.69418 -0.210951
lowerneck 2.06568 5.75428 1.48376
upperneck 18.829 7.41478 -2.13214
head 5.47954 3.3064 -0.632635
rclavicle 1.26825e-013 -5.32743e-014
rhumerus -30.8957 34.6262 -68.3913
rradius 89.0215
rwrist -4.49132
rhand -38.6841 43.89
rfingers 7.12502
rthumb -11.6991 14.2367
lclavicle 1.26825e-013 -5.32743e-014
lhumerus 12.0938 4.50816 78.7465
lradius 125.038
lwrist 21.9774
lhand -23.342 -15.4711
lfingers 7.12502
lthumb 3.11282 14.486
rfemur -7.90845 -5.03243 24.1264
rtibia 44.3527
rfoot -22.4548 -19.7483
rtoes -10.2658
lfemur -13.882 -14.0356 -16.3963
ltibia 47.3937
lfoot -23.883 1.57502
ltoes 2.34323
5
root -0.509808 16.8809 0.185327 11.1164 -74.4934 -24.2507
lowerback 23.0763 -9.24577 3.38327
upperback 7.20182 -11.7798 -1.12057
thorax -5.60907 -5.93743 0.202116
lowerneck 2.23493 6.02904 1.08353
upperneck 18.5471 7.79397 -2.17075
head 5.35683 3.46597 -0.572448
rclavicle 6.55989e-015 -1.74931e-014
rhumerus -32.8999 34.7492 -69.3585
rradius 87.3667
rwrist -4.11739
rhand -38.6051 43.6866
rfingers 7.12502
rthumb -11.6229 14.029
lclavicle 6.55989e-015 -1.74931e-014
lhumerus 13.9664 4.25257 78.6206
lradius 125.377
lwrist 21.8065
lhand -23.0939 -15.1403
lfingers 7.12502
lthumb 3.35245 14.8131
rfemur -9.6845 -5.10017 23.61
rtibia 47.3009
rfoot -19.6424 -19.9552
rtoes -9.93112
lfemur -12.9436 -14.0627 -16.7728
ltibia 46.5995
lfoot -23.686 1.8212
ltoes 2.76904
6
root -0.490176 16.9163 0.228816 10.9279 -74.8493 -24.4504
lowerback 23.7403 -9.53088 2.99028
upperback 7.45302 -12.241 -1.17255
thorax -5.61078 -6.17062 0.564047
lowerneck 2.35374 6.29277 0.791563
upperneck 18.264 8.16344 -2.26829
head 5.24809 3.62594 -0.54794
rclavicle 1.31794e-013 -8.0309e-014
rhumerus -34.7739 34.6534 -70.3243
rradius 85.6688
rwrist -3.57503
rhand -38.5421 43.6058
rfingers 7.12502
rthumb -11.5621 13.9447
lclavicle 1.31794e-013 -8.0309e-014
lhumerus 15.9457 3.98367 78.376
lradius 125.611
lwrist 21.6104
lhand -22.9108 -14.9034
lfingers 7.12502
lthumb 3.52924 15.0471
rfemur -11.6585 -4.9552 23.1661
rtibia 50.4403
rfoot -16.7556 -20.1916
rtoes -10.0727
lfemur -11.9384 -14.1376 -17.1481
ltibia 45.7358
lfoot -23.5088 2.19426
ltoes 3.12339
7
root -0.469248 16.9475 0.272191 10.9371 -75.2322 -24.8626
lowerback 24.4038 -9.80186 2.64165
upperback 7.71702 -12.6795 -1.22089
thorax -5.59574 -6.39482 0.901286
lowerneck 2.50285 6.55124 0.474503
upperneck 17.9338 8.5224 -2.35984
head 5.11793 3.78235 -0.520857
rclavicle -4.55217e-014 8.74653e-015
rhumerus -36.5147 34.3677 -71.1586
rradius 83.9916
rwrist -2.90014
rhand -38.3725 43.788
rfingers 7.12502
rthumb -11.3985 14.1178
lclavicle -4.55217e-014 8.74653e-015
lhumerus 17.9121 3.70428 78.0701
lradius 125.771
lwrist 21.3596
lhand -22.831 -14.9672
lfingers 7.12502
lthumb 3.60632 14.982
rfemur -13.779 -4.65021 22.8015
rtibia 53.6841
rfoot -13.6308 -20.2173
rtoes -10.0531
lfemur -10.9285 -14.225 -17.4784
ltibia 44.8799
lfoot -23.3516 2.58328
ltoes 3.51827
8
root -0.448076 16.9762 0.315391 11.0894 -75.625 -25.4289
lowerback 25.1018 -10.0722 2.31546
upperback 7.95961 -13.1136 -1.2612
thorax -5.61453 -6.61697 1.24499
lowerneck 2.68607 6.81726 0.198307
upperneck 17.5918 8.89387 -2.50929
head 4.98297 3.94563 -0.520255
rclavicle 1.01778e-013 8.74653e-015
rhumerus -38.1931 34.0237 -71.8836
rradius 82.3801
rwrist -1.98497
rhand -38.3747 44.1221
rfingers 7.12502
rthumb -11.4007 14.452
lclavicle 1.01778e-013 8.74653e-015
lhumerus 19.8236 3.47423 77.672
lradius 125.953
lwrist 21.1918
lhand -22.7886 -15.1366
lfingers 7.12502
lthumb 3.6472 14.8119
rfemur -16.005 -4.26827 22.4912
rtibia 56.9674
rfoot -10.5147 -19.9944
rtoes -8.78857
lfemur -9.92934 -14.3144 -17.7878
ltibia 44.0554
lfoot -23.2289 3.03334
ltoes 3.85929
9
root -0.427215 17.0011 0.357275 11.3347 -76.0116 -26.1007
lowerback 25.793 -10.3304 2.01864
upperback 8.21977 -13.5317 -1.32247
thorax -5.61295 -6.83312 1.5467
lowerneck 2.81077 7.06963 -0.0612094
upperneck 17.298 9.23882 -2.60691
head 4.87049 4.09953 -0.505762
rclavicle -9.28324e-014 -1.35174e-014
rhumerus -39.7389 33.5087 -72.5171
rradius 80.8127
rwrist -0.975746
rhand -38.3813 44.6877
rfingers 7.12502
rthumb -11.407 15.018
lclavicle -9.28324e-014 -1.35174e-014
lhumerus 21.751 3.2343 77.215
lradius 126.148
lwrist 21.0923
lhand -22.8071 -15.4408
lfingers 7.12502
lthumb 3.62943 14.5081
rfemur -18.291 -3.8213 22.2371
rtibia 60.2452
rfoot -7.57141 -19.4982
rtoes -7.218
lfemur -8.95188 -14.4238 -18.0906
ltibia 43.2962
lfoot -23.1406 3.52304
ltoes 4.1855
10
root -0.407268 17.0241 0.397902 11.6529 -76.3837 -26.8667
lowerback 26.5021 -10.5939 1.7421
upperback 8.48045 -13.9561 -1.39647
thorax -5.61864 -7.05308 1.83277
lowerneck 3.1717 7.31732 -0.330814
upperneck 16.4172 9.54628 -2.67324
head 5.08146 4.25683 -0.555629
rclavicle 4.27387e-014 3.97569e-015
rhumerus -41.1285 32.9532 -73.0349
rradius 79.35
rwrist 0.10452
rhand -38.4613 45.1789
rfingers 7.12502
rthumb -11.4841 15.5134
lclavicle 4.27387e-014 3.97569e-015
lhumerus 23.5247 3.08253 76.6639
lradius 126.491
lwrist 21.2269
lhand -22.811 -15.7639
lfingers 7.12502
lthumb 3.62566 14.1851
rfemur -20.6133 -3.37161 22.0261
rtibia 63.4886
rfoot -4.97533 -18.7009
rtoes -5.89459
lfemur -7.9713 -14.5586 -18.3826
ltibia 42.5801
lfoot -23.1038 4.02087
ltoes 4.452
11
root -0.387998 17.0442 0.437266 12.1829 -76.696 -27.8673
lowerback 27.2501 -10.8707 1.50665
upperback 8.73204 -14.3876 -1.44325
thorax -5.64616 -7.27679 2.13981
lowerneck 3.41096 7.57053 -0.60342
upperneck 16.0735 9.88343 -2.79961
head 4.90285 4.40964 -0.556396
rclavicle -1.5704e-014 4.69132e-014
rhumerus -42.392 32.3857 -73.4295
rradius 77.9816
rwrist 1.18082
rhand -38.6257 45.7209
rfingers 7.12502
rthumb -11.6427 16.0644
lclavicle -1.5704e-014 4.69132e-014
lhumerus 25.1734 3.02053 76.1063
lradius 126.892
lwrist 21.6064
lhand -22.7659 -16.1159
lfingers 7.12502
lthumb 3.66915 13.8323
rfemur -22.935 -2.96869 21.9092
rtibia 66.6612
rfoot -2.94584 -17.5724
rtoes -5.38718
lfemur -7.0188 -14.7123 -18.6176
ltibia 41.9199
lfoot -23.0725 4.55054
ltoes 4.56723
12
root -0.371848 17.0628 0.474092 12.7017 -76.9656 -28.8556
lowerback 28.0012 -11.1556 1.27554
upperback 8.96087 -14.8306 -1.50744
thorax -5.69788 -7.50464 2.43756
lowerneck 3.71744 7.81854 -0.820916
upperneck 15.689 10.2092 -2.95205
head 4.70239 4.56199 -0.580217
rclavicle 9.08446e-014 -2.8625e-014
rhumerus -43.6399 31.7972 -73.8157
rradius 76.7297
rwrist 2.23068
rhand -38.8502 46.1085
rfingers 7.12502
rthumb -11.8592 16.4643
lclavicle 9.08446e-014 -2.8625e-014
lhumerus 26.6523 3.01682 75.5256
lradius 127.266
lwrist 22.1074
lhand -22.717 -16.5607
lfingers 7.12502
lthumb 3.71642 13.3866
rfemur -25.2551 -2.60652 21.8342
rtibia 69.7612
rfoot -1.50629 -16.2248
rtoes -5.75497
lfemur -6.08696 -14.8501 -18.8361
ltibia 41.2919
lfoot -23.0359 5.01501
ltoes 4.71843
